<svg id="svg" version="1.1" xmlns="http://www.w3.org/2000/svg" xmlns:xlink="http://www.w3.org/1999/xlink" width="400" height="400" viewBox="0, 0, 400,400"><g id="svgg"><path id="path0" d="M196.979 57.765 C 191.546 60.237,190.609 65.361,193.040 79.304 C 193.952 84.535,193.980 92.117,193.092 93.099 C 192.711 93.519,192.400 94.046,192.400 94.270 C 192.400 94.493,192.040 95.002,191.600 95.400 C 191.149 95.808,190.800 96.632,190.800 97.288 C 190.800 99.739,190.357 100.000,186.201 100.000 C 183.373 100.000,181.922 100.200,180.400 100.800 C 179.284 101.240,177.470 101.600,176.369 101.600 C 175.158 101.600,173.750 101.916,172.800 102.400 C 171.938 102.840,170.910 103.202,170.516 103.205 C 169.229 103.214,159.955 106.407,159.061 107.149 C 158.737 107.418,157.828 107.743,157.042 107.871 C 156.256 107.998,155.408 108.350,155.157 108.651 C 154.907 108.953,154.496 109.200,154.245 109.200 C 153.994 109.200,153.071 109.580,152.194 110.045 C 145.444 113.625,143.659 114.634,141.952 115.834 C 140.883 116.585,139.900 117.200,139.767 117.200 C 139.476 117.200,138.797 117.711,132.400 122.751 C 129.650 124.918,125.984 128.060,124.254 129.733 C 121.134 132.752,121.103 132.769,120.429 131.936 C 119.937 131.329,119.148 131.045,117.575 130.909 C 115.362 130.717,112.400 129.701,112.400 129.133 C 112.400 128.961,111.860 128.541,111.201 128.200 C 110.541 127.859,107.761 125.290,105.023 122.490 C 95.318 112.567,95.145 112.400,94.535 112.400 C 94.295 112.400,93.886 112.144,93.626 111.831 C 91.816 109.650,85.502 110.484,82.838 113.256 C 78.640 117.625,81.627 125.239,89.015 129.000 C 90.312 129.660,91.616 130.425,91.915 130.700 C 92.213 130.975,92.692 131.200,92.980 131.200 C 93.267 131.200,93.735 131.480,94.019 131.823 C 94.304 132.166,95.091 132.709,95.768 133.030 C 97.491 133.847,99.214 134.893,100.000 135.600 C 100.368 135.930,101.091 136.470,101.608 136.800 C 104.119 138.402,105.976 140.522,106.628 142.531 C 106.998 143.669,107.615 144.960,108.000 145.400 C 109.472 147.083,109.642 147.839,108.791 148.920 C 108.356 149.474,108.000 150.095,108.000 150.301 C 108.000 150.507,107.650 150.993,107.223 151.379 C 106.795 151.766,106.334 152.589,106.198 153.208 C 106.062 153.827,105.715 154.424,105.427 154.534 C 105.139 154.645,104.787 155.196,104.646 155.760 C 104.505 156.323,103.877 157.652,103.252 158.712 C 102.626 159.773,101.900 161.292,101.637 162.088 C 101.374 162.885,100.898 163.752,100.580 164.017 C 100.261 164.282,100.000 164.927,100.000 165.450 C 100.000 165.974,99.640 167.075,99.200 167.896 C 98.760 168.716,98.400 169.634,98.400 169.934 C 98.400 170.234,98.151 171.046,97.847 171.740 C 96.962 173.756,95.701 178.046,95.419 180.000 C 95.276 180.990,94.914 182.176,94.613 182.635 C 94.312 183.095,93.936 184.985,93.776 186.835 C 93.617 188.686,93.212 190.920,92.877 191.800 C 92.117 193.797,91.701 214.798,92.347 218.600 C 92.742 220.927,92.723 221.024,91.721 221.800 C 91.152 222.240,89.807 223.461,88.730 224.513 C 87.179 226.029,86.358 226.505,84.775 226.805 C 83.677 227.013,82.468 227.350,82.088 227.553 C 81.314 227.967,75.925 228.612,67.000 229.359 C 62.248 229.757,60.669 230.042,59.406 230.730 C 58.529 231.209,57.629 231.603,57.406 231.607 C 56.020 231.631,53.200 236.503,53.200 238.874 C 53.200 246.044,61.944 248.830,71.006 244.548 C 72.109 244.027,73.392 243.600,73.857 243.600 C 74.322 243.600,74.916 243.342,75.178 243.027 C 75.440 242.711,76.407 242.278,77.327 242.065 C 79.076 241.658,80.456 241.208,83.808 239.952 C 86.677 238.877,90.861 238.925,92.383 240.051 C 93.282 240.715,93.847 240.843,94.967 240.633 C 96.756 240.297,98.400 241.684,98.400 243.528 C 98.400 244.168,98.760 245.150,99.200 245.709 C 99.640 246.269,100.000 247.255,100.000 247.901 C 100.000 248.568,100.346 249.389,100.800 249.800 C 101.240 250.198,101.600 250.873,101.600 251.300 C 101.600 251.727,101.922 252.554,102.317 253.138 C 102.711 253.722,103.467 255.190,103.996 256.400 C 104.526 257.610,105.283 258.972,105.679 259.426 C 106.076 259.880,106.400 260.527,106.400 260.864 C 106.400 261.201,106.760 261.802,107.200 262.200 C 107.640 262.598,108.000 263.062,108.000 263.231 C 108.000 263.574,111.495 268.869,111.935 269.193 C 112.090 269.307,112.420 269.850,112.669 270.400 C 113.073 271.294,116.674 275.664,120.792 280.259 C 123.845 283.666,132.544 291.417,135.888 293.710 C 137.160 294.582,138.572 295.634,139.026 296.048 C 139.480 296.462,139.995 296.800,140.170 296.800 C 140.770 296.800,144.355 299.305,144.575 299.878 C 144.695 300.193,144.511 300.999,144.165 301.668 C 143.670 302.626,143.611 303.327,143.891 304.952 C 144.405 307.932,142.337 313.862,139.750 316.831 C 139.448 317.179,139.200 317.646,139.200 317.870 C 139.200 318.093,138.840 318.602,138.400 319.000 C 137.960 319.398,137.600 319.939,137.600 320.201 C 137.600 320.463,137.285 321.062,136.900 321.531 C 130.393 329.464,128.772 336.407,132.449 340.595 C 135.645 344.235,143.730 343.257,145.639 339.000 C 145.837 338.560,146.164 337.930,146.367 337.600 C 147.256 336.155,148.401 333.518,148.414 332.888 C 148.421 332.509,148.775 331.480,149.200 330.600 C 149.625 329.720,149.979 328.455,149.986 327.789 C 149.994 327.123,150.298 326.153,150.662 325.633 C 151.026 325.113,151.473 323.893,151.654 322.923 C 151.835 321.953,152.257 320.886,152.592 320.551 C 152.926 320.217,153.206 319.641,153.213 319.271 C 153.238 317.883,156.413 312.400,157.191 312.400 C 158.043 312.400,160.850 310.142,161.065 309.283 C 161.270 308.468,161.492 308.354,162.553 308.522 C 164.852 308.885,168.383 309.888,168.914 310.329 C 169.203 310.569,170.241 310.876,171.220 311.011 C 172.199 311.147,173.630 311.494,174.400 311.783 C 177.778 313.050,194.023 315.205,200.200 315.205 C 206.257 315.205,221.729 313.192,225.400 311.926 C 226.060 311.698,227.533 311.369,228.674 311.194 C 229.815 311.019,231.255 310.597,231.874 310.256 C 232.493 309.916,233.900 309.438,235.000 309.194 C 236.100 308.951,237.387 308.655,237.861 308.537 C 238.492 308.379,238.792 308.545,238.986 309.156 C 239.132 309.616,240.275 310.663,241.526 311.484 C 242.776 312.306,244.054 313.324,244.365 313.749 C 245.304 315.032,246.797 318.158,246.798 318.846 C 246.799 319.201,247.160 319.950,247.600 320.509 C 248.040 321.069,248.400 322.059,248.400 322.709 C 248.400 323.360,248.760 324.350,249.200 324.909 C 249.640 325.469,250.000 326.348,250.000 326.863 C 250.000 328.348,252.471 335.380,253.632 337.200 C 253.843 337.530,254.256 338.316,254.551 338.947 C 255.818 341.657,260.351 343.261,264.266 342.386 C 269.220 341.279,271.462 334.083,268.374 329.200 C 268.166 328.870,267.684 327.970,267.304 327.200 C 266.925 326.430,265.666 324.567,264.507 323.059 C 263.348 321.552,262.400 320.095,262.400 319.821 C 262.400 319.548,262.040 318.998,261.600 318.600 C 261.160 318.202,260.800 317.693,260.800 317.470 C 260.800 317.246,260.550 316.779,260.245 316.431 C 259.939 316.084,259.189 314.810,258.578 313.600 C 257.966 312.390,257.192 311.078,256.857 310.684 C 256.402 310.150,256.242 308.935,256.224 305.884 C 256.211 303.638,256.064 301.591,255.899 301.336 C 255.322 300.448,256.110 299.577,259.544 297.313 C 267.741 291.907,278.457 282.416,282.703 276.800 C 283.618 275.590,285.088 273.790,285.971 272.800 C 286.854 271.810,287.581 270.873,287.588 270.718 C 287.601 270.417,288.620 268.889,290.709 266.040 C 291.419 265.072,292.000 264.059,292.000 263.789 C 292.000 263.519,292.285 263.062,292.633 262.773 C 292.981 262.484,293.566 261.661,293.933 260.945 C 296.591 255.752,298.373 252.072,298.584 251.336 C 298.720 250.861,299.094 250.254,299.415 249.987 C 299.737 249.720,300.000 249.024,300.000 248.440 C 300.000 247.856,300.277 246.982,300.616 246.498 C 300.956 246.014,301.483 244.787,301.789 243.771 C 302.560 241.207,303.395 240.400,305.276 240.400 C 306.130 240.400,307.273 240.109,307.817 239.752 C 308.945 239.013,315.875 239.090,316.859 239.853 C 317.156 240.085,318.750 240.672,320.400 241.160 C 322.050 241.647,324.120 242.388,325.000 242.806 C 325.880 243.224,327.140 243.688,327.800 243.837 C 328.460 243.986,329.293 244.361,329.650 244.671 C 330.008 244.981,330.998 245.334,331.850 245.456 C 332.703 245.577,334.151 245.949,335.070 246.281 C 340.360 248.196,346.800 244.002,346.800 238.642 C 346.800 235.797,343.829 231.200,341.990 231.200 C 341.609 231.200,341.078 230.935,340.809 230.611 C 340.210 229.889,339.040 229.667,333.400 229.209 C 324.752 228.505,320.173 227.958,318.400 227.416 C 317.410 227.114,315.929 226.754,315.110 226.617 C 314.025 226.435,313.040 225.788,311.488 224.235 C 310.315 223.063,309.005 221.992,308.578 221.857 C 307.825 221.618,307.804 221.196,307.930 208.830 C 308.042 197.706,307.970 195.723,307.370 193.525 C 306.990 192.136,306.553 189.458,306.398 187.574 C 306.239 185.651,305.846 183.720,305.501 183.174 C 305.163 182.638,304.760 181.300,304.605 180.200 C 304.451 179.100,304.071 177.593,303.762 176.851 C 303.453 176.109,303.194 175.209,303.186 174.851 C 303.179 174.493,302.825 173.480,302.400 172.600 C 301.975 171.720,301.620 170.640,301.611 170.200 C 301.602 169.760,301.237 168.860,300.800 168.200 C 300.363 167.540,300.004 166.527,300.003 165.949 C 300.001 165.371,299.737 164.680,299.415 164.413 C 299.094 164.146,298.720 163.539,298.584 163.064 C 298.304 162.086,295.159 155.752,293.858 153.544 C 293.386 152.743,292.405 151.084,291.679 149.858 C 290.307 147.543,290.319 146.829,291.752 145.640 C 292.079 145.368,292.764 143.967,293.274 142.527 C 294.180 139.966,300.012 134.400,301.789 134.400 C 302.057 134.400,302.602 134.040,303.000 133.600 C 303.398 133.160,303.907 132.800,304.130 132.800 C 304.354 132.800,304.821 132.550,305.169 132.245 C 305.516 131.940,306.805 131.160,308.033 130.511 C 316.571 126.001,318.800 123.414,318.800 118.015 C 318.800 108.713,307.731 107.804,300.590 116.519 C 294.255 124.248,286.726 130.318,283.155 130.573 C 281.888 130.663,280.672 131.040,279.969 131.559 C 278.470 132.668,278.774 132.802,275.275 129.485 C 273.584 127.882,270.850 125.510,269.200 124.215 C 267.550 122.920,265.930 121.619,265.600 121.325 C 264.777 120.592,261.372 118.217,259.245 116.893 C 258.279 116.292,256.993 115.395,256.387 114.900 C 255.781 114.405,255.023 114.000,254.704 114.000 C 254.385 114.000,253.798 113.640,253.400 113.200 C 253.002 112.760,252.419 112.400,252.105 112.400 C 251.791 112.400,250.460 111.770,249.146 111.000 C 247.832 110.230,246.629 109.600,246.473 109.600 C 246.316 109.600,245.561 109.264,244.794 108.853 C 244.027 108.443,242.815 107.978,242.100 107.822 C 241.385 107.665,240.800 107.378,240.800 107.184 C 240.800 106.990,240.035 106.640,239.100 106.406 C 238.165 106.173,237.083 105.803,236.695 105.584 C 235.711 105.030,229.940 103.211,229.144 103.205 C 228.783 103.202,227.703 102.844,226.744 102.409 C 225.771 101.968,224.115 101.613,223.000 101.606 C 221.900 101.600,220.460 101.298,219.800 100.936 C 218.995 100.494,217.151 100.198,214.200 100.038 L 209.800 99.800 209.427 97.700 C 209.222 96.545,208.924 95.600,208.765 95.600 C 206.708 95.600,205.633 86.309,206.961 80.000 C 207.974 75.187,208.568 66.447,208.046 64.027 C 206.857 58.516,201.719 55.609,196.979 57.765 M188.868 131.000 C 188.796 135.840,188.564 140.880,188.354 142.200 C 188.144 143.520,187.800 149.182,187.590 154.783 C 187.157 166.372,186.861 167.797,184.392 170.207 C 181.322 173.205,177.613 172.734,172.744 168.727 C 171.724 167.887,170.711 167.200,170.493 167.200 C 170.275 167.200,169.091 166.435,167.862 165.500 C 166.633 164.565,164.702 163.170,163.571 162.400 C 162.440 161.630,161.223 160.685,160.868 160.300 C 160.513 159.915,160.024 159.600,159.781 159.600 C 159.538 159.600,158.341 158.835,157.120 157.900 C 155.899 156.965,154.497 155.930,154.005 155.600 C 153.105 154.997,150.567 153.113,149.775 152.459 C 149.541 152.266,148.922 151.880,148.400 151.600 C 147.878 151.320,147.259 150.928,147.025 150.727 C 146.791 150.527,145.340 149.468,143.800 148.374 C 139.979 145.659,139.857 145.007,142.711 142.531 C 143.935 141.469,145.221 140.324,145.568 139.986 C 145.916 139.649,147.010 138.839,148.000 138.186 C 150.093 136.807,150.594 136.437,151.587 135.542 C 152.370 134.835,153.765 134.022,156.000 132.969 C 156.770 132.607,157.490 132.177,157.600 132.014 C 157.890 131.584,165.217 128.000,165.805 128.000 C 166.079 128.000,166.514 127.744,166.774 127.431 C 167.034 127.118,168.001 126.739,168.923 126.588 C 169.845 126.437,170.901 126.047,171.269 125.723 C 171.637 125.398,172.717 125.033,173.669 124.911 C 174.621 124.789,175.886 124.445,176.480 124.145 C 177.074 123.845,177.974 123.588,178.480 123.574 C 178.986 123.559,180.390 123.207,181.600 122.792 C 183.036 122.299,184.703 122.065,186.400 122.118 L 189.000 122.200 188.868 131.000 M218.000 122.800 C 219.377 123.240,220.850 123.600,221.272 123.600 C 221.694 123.600,222.526 123.847,223.120 124.148 C 223.714 124.449,225.040 124.818,226.067 124.968 C 227.094 125.117,228.133 125.478,228.375 125.770 C 228.617 126.061,229.556 126.419,230.461 126.563 C 231.367 126.708,232.558 127.181,233.108 127.613 C 233.658 128.046,234.399 128.404,234.754 128.409 C 235.109 128.414,236.562 129.044,237.981 129.809 C 239.401 130.574,240.768 131.200,241.019 131.200 C 241.271 131.200,241.802 131.560,242.200 132.000 C 242.598 132.440,243.121 132.803,243.362 132.806 C 243.603 132.809,245.432 133.934,247.426 135.306 C 258.339 142.813,260.875 145.503,258.300 146.839 C 257.805 147.096,256.650 147.912,255.733 148.653 C 254.816 149.394,253.899 150.000,253.695 150.000 C 253.491 150.000,252.998 150.360,252.600 150.800 C 252.202 151.240,251.719 151.600,251.526 151.600 C 251.334 151.600,250.294 152.275,249.215 153.100 C 248.136 153.925,246.600 155.050,245.803 155.600 C 245.005 156.150,244.138 156.784,243.876 157.009 C 243.614 157.234,242.410 158.092,241.200 158.916 C 239.990 159.740,238.010 161.138,236.800 162.023 C 235.590 162.908,234.195 163.800,233.700 164.006 C 233.205 164.212,232.800 164.548,232.800 164.752 C 232.800 164.957,231.945 165.621,230.900 166.228 C 229.855 166.836,228.280 167.912,227.400 168.620 C 222.856 172.275,219.042 172.897,216.026 170.475 C 213.206 168.209,212.494 164.631,212.426 152.388 C 212.412 149.851,212.138 145.621,211.818 142.988 C 211.371 139.305,210.950 126.026,211.169 122.500 C 211.218 121.715,215.144 121.888,218.000 122.800 M129.458 164.700 C 130.548 165.745,133.411 168.291,135.820 170.359 C 138.229 172.426,141.202 175.036,142.426 176.159 C 149.819 182.940,152.395 185.263,154.000 186.597 C 159.414 191.098,161.020 193.004,161.372 195.350 C 162.099 200.199,158.517 204.009,152.600 204.680 C 151.500 204.805,150.301 205.166,149.936 205.483 C 149.570 205.800,148.310 206.200,147.136 206.372 C 145.961 206.545,144.460 206.980,143.800 207.340 C 143.140 207.700,142.281 207.996,141.892 207.998 C 140.917 208.001,135.226 209.585,134.000 210.194 C 133.450 210.467,132.133 210.804,131.073 210.942 C 130.014 211.079,128.759 211.464,128.284 211.796 C 127.810 212.128,126.787 212.404,126.011 212.409 C 125.235 212.414,123.815 212.774,122.856 213.209 C 121.897 213.644,120.863 214.000,120.558 214.000 C 120.253 214.000,118.893 214.384,117.536 214.854 C 113.814 216.142,113.883 216.350,114.103 204.400 C 114.236 197.150,114.446 194.027,114.911 192.400 C 115.256 191.190,115.718 189.300,115.939 188.200 C 116.795 183.920,117.494 181.348,118.133 180.120 C 118.500 179.416,118.801 178.426,118.803 177.920 C 118.804 177.414,119.163 176.460,119.600 175.800 C 120.037 175.140,120.396 174.320,120.397 173.979 C 120.400 173.430,123.395 167.182,124.414 165.600 C 124.627 165.270,124.976 164.505,125.190 163.900 C 125.787 162.215,127.127 162.466,129.458 164.700 M273.735 163.030 C 274.065 163.157,274.988 164.552,275.786 166.130 C 276.584 167.709,277.395 169.270,277.587 169.600 C 278.501 171.169,279.526 173.553,279.775 174.688 C 279.927 175.379,280.310 176.159,280.626 176.421 C 280.942 176.683,281.200 177.378,281.200 177.964 C 281.200 178.551,281.546 179.709,281.969 180.539 C 282.392 181.368,282.858 182.801,283.005 183.723 C 283.152 184.646,283.516 186.210,283.813 187.200 C 284.110 188.190,284.550 189.990,284.792 191.200 C 285.033 192.410,285.393 194.210,285.592 195.200 C 286.144 197.955,286.101 214.539,285.540 215.100 C 285.193 215.447,284.764 215.429,283.799 215.025 C 283.095 214.731,281.731 214.357,280.768 214.195 C 279.805 214.032,278.642 213.653,278.183 213.352 C 277.724 213.051,276.460 212.692,275.374 212.555 C 274.288 212.417,273.008 212.060,272.530 211.762 C 272.051 211.464,270.701 211.051,269.530 210.844 C 268.358 210.637,266.590 210.194,265.600 209.861 C 261.627 208.522,259.762 207.996,258.994 207.998 C 258.551 207.999,257.516 207.640,256.696 207.200 C 255.875 206.760,254.522 206.400,253.690 206.400 C 252.859 206.400,251.755 206.104,251.238 205.742 C 250.721 205.380,249.196 204.856,247.849 204.578 C 240.546 203.071,237.645 200.014,238.708 194.945 C 239.192 192.637,239.887 191.817,245.648 186.760 C 254.202 179.252,256.076 177.572,258.600 175.147 C 260.140 173.667,262.077 171.922,262.904 171.269 C 265.281 169.392,269.199 165.935,270.766 164.333 C 272.237 162.829,272.691 162.630,273.735 163.030 M211.107 198.739 L 215.145 203.878 214.595 205.639 C 214.292 206.608,213.871 208.300,213.658 209.400 C 213.445 210.500,213.073 212.210,212.832 213.200 C 212.591 214.190,212.305 215.391,212.197 215.868 C 212.071 216.426,211.586 216.827,210.842 216.991 C 210.204 217.131,209.366 217.595,208.979 218.023 C 208.593 218.450,207.927 218.800,207.500 218.800 C 207.073 218.800,206.246 219.136,205.662 219.548 C 205.078 219.959,204.150 220.433,203.600 220.601 C 203.050 220.770,202.245 221.154,201.811 221.454 C 201.377 221.754,200.562 222.000,200.000 222.000 C 199.438 222.000,198.623 221.754,198.189 221.454 C 197.755 221.154,196.950 220.770,196.400 220.601 C 195.850 220.433,194.922 219.959,194.338 219.548 C 193.754 219.136,192.927 218.800,192.500 218.800 C 192.073 218.800,191.407 218.450,191.021 218.023 C 190.634 217.595,189.796 217.131,189.158 216.991 C 188.320 216.807,187.938 216.440,187.777 215.668 C 187.655 215.081,187.368 213.880,187.140 213.000 C 186.911 212.120,186.476 210.093,186.174 208.495 C 185.871 206.897,185.425 205.221,185.184 204.770 C 184.755 203.968,185.688 202.434,188.375 199.523 C 188.719 199.151,189.898 197.666,190.995 196.223 L 192.990 193.600 200.029 193.600 L 207.069 193.600 211.107 198.739 M242.008 229.582 C 244.150 229.768,246.330 230.150,246.852 230.430 C 247.373 230.710,249.543 231.075,251.673 231.241 C 253.803 231.407,255.963 231.767,256.473 232.040 C 256.983 232.312,259.290 232.756,261.600 233.025 C 263.910 233.294,266.835 233.713,268.100 233.957 C 269.365 234.201,271.435 234.600,272.700 234.845 C 273.965 235.089,276.335 235.494,277.967 235.745 C 281.111 236.227,281.733 236.749,280.624 237.974 C 280.262 238.374,279.860 239.350,279.732 240.144 C 279.603 240.938,279.250 241.792,278.949 242.043 C 278.647 242.293,278.396 242.701,278.391 242.949 C 278.387 243.197,277.762 244.570,277.003 246.000 C 276.244 247.430,275.393 249.048,275.112 249.597 C 274.371 251.040,270.719 256.615,268.719 259.356 C 266.838 261.934,254.265 274.800,253.627 274.800 C 253.409 274.800,252.279 275.574,251.116 276.521 C 247.693 279.304,246.488 279.301,245.571 276.503 C 245.300 275.676,244.854 274.640,244.579 274.200 C 244.304 273.760,243.959 272.827,243.814 272.128 C 243.668 271.428,243.290 270.641,242.974 270.379 C 242.658 270.117,242.399 269.519,242.397 269.051 C 242.396 268.583,242.037 267.660,241.600 267.000 C 241.163 266.340,240.804 265.564,240.803 265.275 C 240.800 264.750,239.253 261.139,238.173 259.138 C 237.858 258.554,237.599 257.744,237.597 257.338 C 237.596 256.932,237.237 256.060,236.800 255.400 C 236.363 254.740,236.004 253.823,236.003 253.361 C 236.001 252.900,235.640 252.107,235.200 251.600 C 234.760 251.093,234.400 250.390,234.400 250.039 C 234.400 249.444,232.139 243.890,230.376 240.156 C 227.732 234.557,231.738 228.000,237.156 229.057 C 237.682 229.159,239.865 229.396,242.008 229.582 M165.971 229.592 C 169.851 230.704,171.776 236.533,169.648 240.721 C 168.044 243.877,165.600 249.736,165.600 250.425 C 165.600 250.672,165.240 251.331,164.800 251.891 C 164.360 252.450,163.999 253.289,163.997 253.754 C 163.996 254.219,163.637 255.140,163.200 255.800 C 162.763 256.460,162.404 257.277,162.403 257.615 C 162.401 257.954,162.040 258.937,161.600 259.800 C 161.160 260.663,160.800 261.579,160.800 261.836 C 160.800 262.092,160.530 262.526,160.200 262.800 C 159.870 263.074,159.600 263.684,159.600 264.155 C 159.600 264.626,159.240 265.684,158.800 266.504 C 158.360 267.325,158.000 268.277,158.000 268.619 C 158.000 268.962,157.649 269.907,157.219 270.721 C 156.242 272.570,154.958 275.514,154.610 276.700 C 154.274 277.844,153.022 278.524,151.904 278.170 C 149.091 277.277,134.897 264.262,133.034 260.867 C 132.833 260.500,131.978 259.482,131.134 258.604 C 130.290 257.726,129.600 256.870,129.600 256.700 C 129.600 256.530,128.962 255.484,128.182 254.374 C 127.402 253.264,126.583 251.961,126.361 251.478 C 126.140 250.995,125.531 249.880,125.009 249.000 C 123.116 245.812,120.400 240.084,120.400 239.280 C 120.400 238.828,120.116 238.173,119.768 237.825 C 118.645 236.702,119.352 236.226,122.832 235.758 C 124.684 235.509,127.235 235.102,128.500 234.853 C 134.434 233.685,135.659 233.477,139.400 233.001 C 141.600 232.722,144.284 232.202,145.364 231.846 C 146.444 231.491,148.474 231.200,149.876 231.200 C 151.335 231.200,153.062 230.925,153.913 230.557 C 155.241 229.983,159.276 229.418,163.203 229.257 C 163.974 229.226,165.220 229.376,165.971 229.592 M204.977 248.917 C 206.090 250.081,207.697 252.376,208.548 254.017 C 209.400 255.658,210.518 257.720,211.032 258.600 C 211.547 259.480,212.241 260.740,212.576 261.400 C 213.225 262.681,213.750 263.565,214.866 265.260 C 215.250 265.843,215.682 266.788,215.826 267.360 C 215.969 267.932,216.220 268.400,216.383 268.400 C 216.545 268.400,216.975 269.075,217.337 269.900 C 217.699 270.725,218.428 272.120,218.958 273.000 C 219.487 273.880,220.485 275.709,221.176 277.064 C 221.867 278.420,222.695 279.747,223.016 280.013 C 223.337 280.280,223.600 280.825,223.600 281.225 C 223.600 281.625,223.770 282.058,223.978 282.186 C 224.408 282.452,227.200 287.809,227.200 288.369 C 227.200 288.571,226.615 288.865,225.900 289.022 C 225.185 289.178,223.973 289.643,223.206 290.053 C 222.398 290.486,221.001 290.800,219.886 290.800 C 218.827 290.800,217.423 291.078,216.766 291.418 C 213.372 293.173,190.821 293.383,185.000 291.713 C 183.900 291.398,181.863 290.995,180.474 290.819 C 179.085 290.642,177.375 290.215,176.674 289.870 C 175.973 289.524,174.905 289.139,174.300 289.013 C 173.695 288.888,173.200 288.581,173.200 288.331 C 173.200 287.727,175.159 283.560,175.799 282.800 C 176.078 282.470,176.434 281.777,176.592 281.261 C 176.750 280.744,177.221 279.979,177.639 279.561 C 178.058 279.142,178.400 278.476,178.400 278.080 C 178.400 277.684,178.617 277.143,178.882 276.878 C 179.467 276.293,181.699 272.419,182.761 270.144 C 183.186 269.233,183.729 268.368,183.967 268.220 C 184.205 268.073,184.400 267.625,184.400 267.225 C 184.400 266.825,184.663 266.280,184.984 266.013 C 185.305 265.747,186.128 264.420,186.812 263.064 C 187.497 261.709,188.478 259.880,188.993 259.000 C 189.508 258.120,190.527 256.230,191.258 254.800 C 194.728 248.012,196.017 246.885,200.377 246.832 L 202.955 246.800 204.977 248.917 " stroke="none" fill="#fafafb" fill-rule="evenodd"></path><path id="path1" d="M190.000 6.400 C 190.000 7.093,189.733 7.200,188.014 7.200 C 186.438 7.200,185.940 7.365,185.600 8.000 C 185.365 8.440,184.818 8.800,184.386 8.800 C 183.954 8.800,183.600 9.070,183.600 9.400 C 183.600 9.822,183.174 10.000,182.163 10.000 C 181.062 10.000,180.676 10.187,180.516 10.800 C 180.363 11.384,179.968 11.601,179.053 11.605 C 177.197 11.614,176.000 12.022,176.000 12.647 C 176.000 12.965,175.590 13.200,175.033 13.200 C 173.652 13.200,172.800 13.598,172.800 14.243 C 172.800 14.549,172.440 14.800,172.000 14.800 C 171.467 14.800,171.200 15.067,171.200 15.600 C 171.200 16.305,170.933 16.400,168.963 16.400 C 167.062 16.400,166.694 16.520,166.516 17.200 C 166.352 17.827,165.970 18.000,164.753 18.000 C 163.467 18.000,163.200 18.137,163.200 18.800 C 163.200 19.445,162.933 19.600,161.827 19.600 C 160.805 19.600,160.389 19.805,160.200 20.400 C 160.011 20.995,159.595 21.200,158.573 21.200 C 157.467 21.200,157.200 21.355,157.200 22.000 C 157.200 22.667,156.933 22.800,155.600 22.800 C 154.267 22.800,154.000 22.933,154.000 23.600 C 154.000 24.267,153.733 24.400,152.400 24.400 C 151.304 24.400,150.800 24.574,150.800 24.954 C 150.800 25.325,150.075 25.598,148.600 25.783 C 147.089 25.972,146.400 26.236,146.400 26.629 C 146.400 26.943,146.074 27.200,145.675 27.200 C 145.277 27.200,144.564 27.560,144.092 28.000 C 143.620 28.440,142.866 28.800,142.417 28.800 C 141.867 28.800,141.600 29.061,141.600 29.600 C 141.600 30.279,141.333 30.400,139.833 30.400 C 137.686 30.400,136.800 30.704,136.800 31.443 C 136.800 31.816,136.325 32.000,135.363 32.000 C 134.262 32.000,133.876 32.187,133.716 32.800 C 133.568 33.366,133.170 33.600,132.357 33.600 C 131.640 33.600,131.019 33.901,130.707 34.400 C 130.377 34.929,129.774 35.200,128.931 35.200 C 128.005 35.200,127.584 35.420,127.400 36.000 C 127.211 36.595,126.795 36.800,125.773 36.800 C 124.667 36.800,124.400 36.955,124.400 37.600 C 124.400 38.267,124.133 38.400,122.800 38.400 C 121.467 38.400,121.200 38.533,121.200 39.200 C 121.200 39.864,120.933 40.000,119.633 40.000 C 117.678 40.000,116.800 40.323,116.800 41.043 C 116.800 41.370,116.388 41.600,115.800 41.600 C 115.178 41.600,114.800 41.827,114.800 42.200 C 114.800 42.622,114.374 42.800,113.363 42.800 C 112.262 42.800,111.876 42.987,111.716 43.600 C 111.563 44.184,111.168 44.401,110.253 44.405 C 108.397 44.414,107.200 44.822,107.200 45.447 C 107.200 45.765,106.790 46.000,106.233 46.000 C 104.852 46.000,104.000 46.398,104.000 47.043 C 104.000 47.349,103.640 47.600,103.200 47.600 C 102.667 47.600,102.400 47.867,102.400 48.400 C 102.400 49.105,102.133 49.200,100.163 49.200 C 98.262 49.200,97.894 49.320,97.716 50.000 C 97.557 50.606,97.170 50.800,96.116 50.800 C 95.062 50.800,94.675 50.994,94.516 51.600 C 94.359 52.201,93.970 52.400,92.953 52.400 C 91.867 52.400,91.600 52.558,91.600 53.200 C 91.600 53.867,91.333 54.000,90.000 54.000 C 88.667 54.000,88.400 54.133,88.400 54.800 C 88.400 55.467,88.133 55.600,86.800 55.600 C 85.467 55.600,85.200 55.733,85.200 56.400 C 85.200 57.067,84.933 57.200,83.600 57.200 C 82.504 57.200,82.000 57.374,82.000 57.753 C 82.000 58.384,80.800 58.787,78.900 58.795 C 78.014 58.798,77.600 58.991,77.600 59.400 C 77.600 59.730,77.252 60.000,76.827 60.000 C 76.402 60.000,75.940 60.360,75.800 60.800 C 75.611 61.395,75.195 61.600,74.173 61.600 C 73.067 61.600,72.800 61.755,72.800 62.400 C 72.800 63.105,72.533 63.200,70.563 63.200 C 68.662 63.200,68.294 63.320,68.116 64.000 C 67.957 64.606,67.570 64.800,66.516 64.800 C 65.462 64.800,65.075 64.994,64.916 65.600 C 64.766 66.174,64.370 66.400,63.516 66.400 C 62.662 66.400,62.266 66.626,62.116 67.200 C 61.952 67.827,61.570 68.000,60.353 68.000 C 59.067 68.000,58.800 68.137,58.800 68.800 C 58.800 69.467,58.533 69.600,57.200 69.600 C 55.867 69.600,55.600 69.733,55.600 70.400 C 55.600 71.067,55.333 71.200,54.000 71.200 C 52.667 71.200,52.400 71.333,52.400 72.000 C 52.400 72.695,52.133 72.800,50.363 72.800 C 48.662 72.800,48.291 72.932,48.116 73.600 C 47.981 74.118,47.570 74.400,46.953 74.400 C 46.386 74.400,46.000 74.635,46.000 74.982 C 46.000 75.330,45.438 75.669,44.600 75.826 C 43.798 75.977,43.200 76.326,43.200 76.645 C 43.200 76.950,42.913 77.200,42.563 77.200 C 42.212 77.200,41.831 77.560,41.716 78.000 C 41.601 78.440,41.241 78.800,40.916 78.800 C 40.591 78.800,40.235 79.143,40.126 79.563 C 40.016 79.983,39.583 80.416,39.163 80.526 C 38.591 80.675,38.400 81.085,38.400 82.163 C 38.400 83.333,38.252 83.600,37.600 83.600 C 36.933 83.600,36.800 83.867,36.800 85.200 C 36.800 86.533,36.667 86.800,36.000 86.800 C 35.473 86.800,35.200 87.067,35.200 87.580 C 35.200 88.009,34.895 88.531,34.522 88.740 C 34.021 89.020,33.799 89.817,33.674 91.771 C 33.542 93.848,33.342 94.510,32.753 94.825 C 32.103 95.173,32.000 95.712,32.000 98.767 C 32.000 101.970,31.924 102.327,31.200 102.516 C 30.475 102.706,30.400 103.062,30.400 106.316 C 30.400 109.570,30.325 109.926,29.600 110.116 C 28.917 110.295,28.800 110.662,28.800 112.631 C 28.800 114.117,28.587 115.172,28.201 115.599 C 27.872 115.963,27.487 117.362,27.346 118.708 C 27.198 120.125,26.874 121.239,26.577 121.353 C 26.243 121.482,25.964 122.824,25.778 125.209 C 25.581 127.719,25.320 128.932,24.946 129.076 C 24.538 129.233,24.400 130.238,24.400 133.043 C 24.400 136.533,24.343 136.800,23.600 136.800 C 22.856 136.800,22.800 137.067,22.800 140.600 C 22.800 144.133,22.744 144.400,22.000 144.400 C 21.291 144.400,21.200 144.667,21.200 146.753 C 21.200 148.770,21.086 149.137,20.400 149.316 C 19.670 149.507,19.600 149.862,19.600 153.363 C 19.600 156.933,19.544 157.200,18.800 157.200 C 18.068 157.200,18.000 157.467,18.000 160.353 C 18.000 163.170,17.915 163.529,17.200 163.716 C 16.474 163.906,16.400 164.262,16.400 167.563 C 16.400 170.933,16.341 171.200,15.600 171.200 C 14.889 171.200,14.800 171.467,14.800 173.600 C 14.800 175.385,14.657 176.000,14.243 176.000 C 13.419 176.000,13.200 176.919,13.200 180.386 C 13.200 183.170,13.114 183.529,12.400 183.716 C 11.671 183.907,11.600 184.262,11.600 187.716 C 11.600 191.170,11.529 191.525,10.800 191.716 C 10.090 191.902,10.000 192.262,10.000 194.920 C 10.000 197.076,9.848 197.973,9.456 198.123 C 9.150 198.240,8.817 199.170,8.696 200.242 C 8.575 201.321,8.203 202.355,7.841 202.620 C 7.338 202.987,7.200 203.840,7.200 206.582 C 7.200 209.738,7.123 210.095,6.400 210.284 C 5.672 210.475,5.600 210.830,5.600 214.247 C 5.600 217.733,5.543 218.000,4.800 218.000 C 4.057 218.000,4.000 218.267,4.000 221.773 C 4.000 225.195,3.926 225.570,3.200 225.800 C 2.564 226.002,2.400 226.405,2.400 227.765 C 2.400 228.968,2.162 229.691,1.600 230.200 C 0.938 230.799,0.800 231.432,0.800 233.862 C 0.800 235.554,0.630 236.800,0.400 236.800 C 0.144 236.800,0.000 240.467,0.000 247.000 C 0.000 253.533,0.144 257.200,0.400 257.200 C 0.620 257.200,0.800 258.117,0.800 259.237 C 0.800 260.938,0.932 261.309,1.600 261.484 C 2.043 261.600,2.400 262.030,2.400 262.447 C 2.400 262.933,2.683 263.200,3.200 263.200 C 3.787 263.200,4.000 263.467,4.000 264.204 C 4.000 264.756,4.360 265.516,4.800 265.893 C 5.240 266.270,5.600 266.898,5.600 267.289 C 5.600 267.733,5.900 268.000,6.400 268.000 C 6.933 268.000,7.200 268.267,7.200 268.800 C 7.200 269.265,7.467 269.600,7.837 269.600 C 8.188 269.600,8.569 269.960,8.684 270.400 C 8.799 270.840,9.134 271.200,9.429 271.200 C 9.724 271.200,10.082 271.828,10.226 272.600 C 10.377 273.402,10.726 274.000,11.045 274.000 C 11.350 274.000,11.600 274.360,11.600 274.800 C 11.600 275.333,11.867 275.600,12.400 275.600 C 12.933 275.600,13.200 275.867,13.200 276.400 C 13.200 276.933,13.467 277.200,14.000 277.200 C 14.533 277.200,14.800 277.467,14.800 278.000 C 14.800 278.521,15.067 278.800,15.565 278.800 C 16.136 278.800,16.396 279.180,16.590 280.300 C 16.887 282.013,18.028 283.600,18.964 283.600 C 19.333 283.600,19.600 283.935,19.600 284.400 C 19.600 284.933,19.867 285.200,20.400 285.200 C 20.933 285.200,21.200 285.467,21.200 286.000 C 21.200 286.533,21.467 286.800,22.000 286.800 C 22.533 286.800,22.800 287.067,22.800 287.600 C 22.800 288.133,23.067 288.400,23.600 288.400 C 24.230 288.400,24.400 288.667,24.400 289.654 C 24.400 290.860,25.892 292.800,26.821 292.800 C 27.029 292.800,27.200 293.160,27.200 293.600 C 27.200 294.133,27.467 294.400,28.000 294.400 C 28.533 294.400,28.800 294.667,28.800 295.200 C 28.800 295.733,29.067 296.000,29.600 296.000 C 30.252 296.000,30.400 296.267,30.400 297.437 C 30.400 298.538,30.587 298.924,31.200 299.084 C 31.643 299.200,32.000 299.630,32.000 300.047 C 32.000 300.533,32.283 300.800,32.800 300.800 C 33.333 300.800,33.600 301.067,33.600 301.600 C 33.600 302.133,33.867 302.400,34.400 302.400 C 34.933 302.400,35.200 302.667,35.200 303.200 C 35.200 303.733,35.467 304.000,36.000 304.000 C 36.642 304.000,36.800 304.267,36.800 305.353 C 36.800 306.370,36.999 306.759,37.600 306.916 C 38.040 307.031,38.400 307.412,38.400 307.763 C 38.400 308.133,38.735 308.400,39.200 308.400 C 39.733 308.400,40.000 308.667,40.000 309.200 C 40.000 309.733,40.267 310.000,40.800 310.000 C 41.333 310.000,41.600 310.267,41.600 310.800 C 41.600 311.240,41.854 311.600,42.165 311.600 C 42.512 311.600,42.834 312.216,43.000 313.200 C 43.166 314.184,43.488 314.800,43.835 314.800 C 44.146 314.800,44.400 315.087,44.400 315.437 C 44.400 315.788,44.760 316.169,45.200 316.284 C 45.643 316.400,46.000 316.830,46.000 317.247 C 46.000 317.733,46.283 318.000,46.800 318.000 C 47.333 318.000,47.600 318.267,47.600 318.800 C 47.600 319.333,47.867 319.600,48.400 319.600 C 49.028 319.600,49.200 319.867,49.200 320.837 C 49.200 321.738,49.417 322.132,50.000 322.284 C 50.460 322.404,50.800 322.830,50.800 323.284 C 50.800 323.738,51.140 324.164,51.600 324.284 C 52.040 324.399,52.400 324.742,52.400 325.047 C 52.400 325.351,52.760 325.600,53.200 325.600 C 53.733 325.600,54.000 325.867,54.000 326.400 C 54.000 326.933,54.267 327.200,54.800 327.200 C 55.333 327.200,55.600 327.467,55.600 328.000 C 55.600 328.533,55.867 328.800,56.400 328.800 C 57.067 328.800,57.200 329.067,57.200 330.400 C 57.200 331.733,57.333 332.000,58.000 332.000 C 58.533 332.000,58.800 332.267,58.800 332.800 C 58.800 333.244,59.067 333.600,59.400 333.600 C 59.730 333.600,60.000 333.887,60.000 334.237 C 60.000 334.588,60.360 334.969,60.800 335.084 C 61.243 335.200,61.600 335.630,61.600 336.047 C 61.600 336.533,61.883 336.800,62.400 336.800 C 63.045 336.800,63.200 337.067,63.200 338.173 C 63.200 339.195,63.405 339.611,64.000 339.800 C 64.440 339.940,64.800 340.329,64.800 340.664 C 64.800 341.000,65.160 341.369,65.600 341.484 C 66.040 341.599,66.400 341.942,66.400 342.247 C 66.400 342.551,66.760 342.800,67.200 342.800 C 67.683 342.800,68.000 343.067,68.000 343.474 C 68.000 344.811,69.646 347.600,70.436 347.600 C 70.933 347.600,71.200 347.879,71.200 348.400 C 71.200 348.933,71.467 349.200,72.000 349.200 C 72.533 349.200,72.800 349.467,72.800 350.000 C 72.800 350.533,73.067 350.800,73.600 350.800 C 74.133 350.800,74.400 351.067,74.400 351.600 C 74.400 352.040,74.650 352.400,74.955 352.400 C 75.275 352.400,75.624 353.003,75.778 353.821 C 75.924 354.603,76.304 355.342,76.622 355.464 C 76.940 355.586,77.200 355.924,77.200 356.216 C 77.200 356.507,77.560 356.860,78.000 357.000 C 78.440 357.140,78.800 357.512,78.800 357.827 C 78.800 358.142,79.160 358.400,79.600 358.400 C 80.133 358.400,80.400 358.667,80.400 359.200 C 80.400 359.733,80.667 360.000,81.200 360.000 C 81.852 360.000,82.000 360.267,82.000 361.437 C 82.000 362.538,82.187 362.924,82.800 363.084 C 83.243 363.200,83.600 363.630,83.600 364.047 C 83.600 364.533,83.883 364.800,84.400 364.800 C 84.933 364.800,85.200 365.067,85.200 365.600 C 85.200 366.133,85.467 366.400,86.000 366.400 C 86.533 366.400,86.800 366.667,86.800 367.200 C 86.800 367.733,87.067 368.000,87.600 368.000 C 88.245 368.000,88.400 368.267,88.400 369.373 C 88.400 370.395,88.605 370.811,89.200 371.000 C 89.640 371.140,90.000 371.529,90.000 371.864 C 90.000 372.200,90.360 372.569,90.800 372.684 C 91.243 372.800,91.600 373.230,91.600 373.647 C 91.600 374.061,91.870 374.400,92.200 374.400 C 92.530 374.400,92.800 374.670,92.800 375.000 C 92.800 375.330,93.137 375.600,93.549 375.600 C 94.113 375.600,94.361 375.994,94.554 377.200 C 94.719 378.235,95.020 378.800,95.405 378.800 C 95.733 378.800,96.000 379.158,96.000 379.600 C 96.000 380.133,96.267 380.400,96.800 380.400 C 97.333 380.400,97.600 380.667,97.600 381.200 C 97.600 381.733,97.867 382.000,98.400 382.000 C 98.933 382.000,99.200 382.267,99.200 382.800 C 99.200 383.333,99.467 383.600,100.000 383.600 C 100.620 383.600,100.800 383.867,100.800 384.786 C 100.800 385.562,101.076 386.120,101.600 386.400 C 102.040 386.635,102.400 387.080,102.400 387.387 C 102.400 387.695,102.743 388.055,103.163 388.188 C 103.583 388.321,104.023 388.684,104.142 388.993 C 104.261 389.303,104.997 389.676,105.779 389.822 C 106.615 389.979,107.200 390.323,107.200 390.657 C 107.200 390.969,107.515 391.341,107.900 391.482 C 108.285 391.624,108.744 391.978,108.920 392.270 C 109.116 392.596,110.003 392.800,111.220 392.800 C 112.933 392.800,113.200 392.908,113.200 393.600 C 113.200 394.398,113.467 394.400,200.000 394.400 C 286.533 394.400,286.800 394.398,286.800 393.600 C 286.800 392.906,287.067 392.800,288.813 392.800 C 290.232 392.800,290.893 392.623,291.055 392.200 C 291.182 391.870,291.626 391.600,292.043 391.600 C 292.518 391.600,292.800 391.319,292.800 390.845 C 292.800 390.296,293.189 390.016,294.221 389.822 C 295.003 389.676,295.739 389.303,295.858 388.993 C 295.977 388.684,296.417 388.321,296.837 388.188 C 297.257 388.055,297.600 387.695,297.600 387.387 C 297.600 387.080,297.960 386.635,298.400 386.400 C 298.924 386.120,299.200 385.562,299.200 384.786 C 299.200 383.867,299.380 383.600,300.000 383.600 C 300.533 383.600,300.800 383.333,300.800 382.800 C 300.800 382.267,301.067 382.000,301.600 382.000 C 302.133 382.000,302.400 381.733,302.400 381.200 C 302.400 380.667,302.667 380.400,303.200 380.400 C 303.733 380.400,304.000 380.133,304.000 379.600 C 304.000 379.158,304.267 378.800,304.595 378.800 C 304.980 378.800,305.281 378.235,305.446 377.200 C 305.639 375.994,305.887 375.600,306.451 375.600 C 306.863 375.600,307.200 375.330,307.200 375.000 C 307.200 374.670,307.470 374.400,307.800 374.400 C 308.130 374.400,308.400 374.061,308.400 373.647 C 308.400 373.230,308.757 372.800,309.200 372.684 C 309.640 372.569,310.000 372.200,310.000 371.864 C 310.000 371.529,310.360 371.140,310.800 371.000 C 311.395 370.811,311.600 370.395,311.600 369.373 C 311.600 368.267,311.755 368.000,312.400 368.000 C 312.933 368.000,313.200 367.733,313.200 367.200 C 313.200 366.667,313.467 366.400,314.000 366.400 C 314.533 366.400,314.800 366.133,314.800 365.600 C 314.800 365.067,315.067 364.800,315.600 364.800 C 316.117 364.800,316.400 364.533,316.400 364.047 C 316.400 363.630,316.757 363.200,317.200 363.084 C 317.813 362.924,318.000 362.538,318.000 361.437 C 318.000 360.267,318.148 360.000,318.800 360.000 C 319.333 360.000,319.600 359.733,319.600 359.200 C 319.600 358.667,319.867 358.400,320.400 358.400 C 320.844 358.400,321.200 358.133,321.200 357.800 C 321.200 357.470,321.476 357.200,321.813 357.200 C 322.149 357.200,322.543 356.885,322.686 356.500 C 322.830 356.115,323.274 355.565,323.674 355.277 C 324.093 354.976,324.400 354.256,324.400 353.577 C 324.400 352.797,324.603 352.400,325.000 352.400 C 325.333 352.400,325.600 352.044,325.600 351.600 C 325.600 351.067,325.867 350.800,326.400 350.800 C 326.933 350.800,327.200 350.533,327.200 350.000 C 327.200 349.467,327.467 349.200,328.000 349.200 C 328.533 349.200,328.800 348.933,328.800 348.400 C 328.800 347.879,329.067 347.600,329.564 347.600 C 330.354 347.600,332.000 344.811,332.000 343.474 C 332.000 343.067,332.317 342.800,332.800 342.800 C 333.240 342.800,333.600 342.551,333.600 342.247 C 333.600 341.942,333.960 341.599,334.400 341.484 C 334.840 341.369,335.200 341.000,335.200 340.664 C 335.200 340.329,335.560 339.940,336.000 339.800 C 336.595 339.611,336.800 339.195,336.800 338.173 C 336.800 337.067,336.955 336.800,337.600 336.800 C 338.133 336.800,338.400 336.533,338.400 336.000 C 338.400 335.467,338.667 335.200,339.200 335.200 C 339.717 335.200,340.000 334.933,340.000 334.447 C 340.000 334.030,340.357 333.600,340.800 333.484 C 341.240 333.369,341.600 332.988,341.600 332.637 C 341.600 332.287,341.870 332.000,342.200 332.000 C 342.633 332.000,342.800 331.556,342.800 330.400 C 342.800 329.067,342.933 328.800,343.600 328.800 C 344.133 328.800,344.400 328.533,344.400 328.000 C 344.400 327.467,344.667 327.200,345.200 327.200 C 345.733 327.200,346.000 326.933,346.000 326.400 C 346.000 325.867,346.267 325.600,346.800 325.600 C 347.240 325.600,347.600 325.351,347.600 325.047 C 347.600 324.742,347.960 324.399,348.400 324.284 C 348.860 324.164,349.200 323.738,349.200 323.284 C 349.200 322.830,349.540 322.404,350.000 322.284 C 350.583 322.132,350.800 321.738,350.800 320.837 C 350.800 319.867,350.972 319.600,351.600 319.600 C 352.133 319.600,352.400 319.333,352.400 318.800 C 352.400 318.267,352.667 318.000,353.200 318.000 C 353.717 318.000,354.000 317.733,354.000 317.247 C 354.000 316.830,354.357 316.400,354.800 316.284 C 355.240 316.169,355.600 315.788,355.600 315.437 C 355.600 315.087,355.868 314.800,356.195 314.800 C 356.580 314.800,356.881 314.235,357.046 313.200 C 357.201 312.235,357.520 311.600,357.851 311.600 C 358.153 311.600,358.400 311.240,358.400 310.800 C 358.400 310.267,358.667 310.000,359.200 310.000 C 359.733 310.000,360.000 309.733,360.000 309.200 C 360.000 308.667,360.267 308.400,360.800 308.400 C 361.265 308.400,361.600 308.133,361.600 307.763 C 361.600 307.412,361.960 307.031,362.400 306.916 C 363.001 306.759,363.200 306.370,363.200 305.353 C 363.200 304.267,363.358 304.000,364.000 304.000 C 364.533 304.000,364.800 303.733,364.800 303.200 C 364.800 302.667,365.067 302.400,365.600 302.400 C 366.133 302.400,366.400 302.133,366.400 301.600 C 366.400 301.067,366.667 300.800,367.200 300.800 C 367.717 300.800,368.000 300.533,368.000 300.047 C 368.000 299.630,368.357 299.200,368.800 299.084 C 369.413 298.924,369.600 298.538,369.600 297.437 C 369.600 296.267,369.748 296.000,370.400 296.000 C 370.933 296.000,371.200 295.733,371.200 295.200 C 371.200 294.667,371.467 294.400,372.000 294.400 C 372.533 294.400,372.800 294.133,372.800 293.600 C 372.800 293.160,373.004 292.800,373.254 292.800 C 374.122 292.800,375.600 290.771,375.600 289.579 C 375.600 288.667,375.781 288.400,376.400 288.400 C 376.933 288.400,377.200 288.133,377.200 287.600 C 377.200 287.067,377.467 286.800,378.000 286.800 C 378.533 286.800,378.800 286.533,378.800 286.000 C 378.800 285.467,379.067 285.200,379.600 285.200 C 380.133 285.200,380.400 284.933,380.400 284.400 C 380.400 283.925,380.667 283.600,381.056 283.600 C 381.903 283.600,382.771 282.447,382.787 281.300 C 382.794 280.805,382.980 280.400,383.200 280.400 C 383.420 280.400,383.600 280.040,383.600 279.600 C 383.600 279.067,383.867 278.800,384.400 278.800 C 384.933 278.800,385.200 278.533,385.200 278.000 C 385.200 277.467,385.467 277.200,386.000 277.200 C 386.533 277.200,386.800 276.933,386.800 276.400 C 386.800 275.867,387.067 275.600,387.600 275.600 C 388.044 275.600,388.400 275.333,388.400 275.000 C 388.400 274.670,388.760 274.040,389.200 273.600 C 389.640 273.160,390.000 272.440,390.000 272.000 C 390.000 271.535,390.267 271.200,390.637 271.200 C 390.988 271.200,391.369 270.840,391.484 270.400 C 391.599 269.960,391.942 269.600,392.247 269.600 C 392.551 269.600,392.800 269.240,392.800 268.800 C 392.800 268.267,393.067 268.000,393.600 268.000 C 394.222 268.000,394.400 267.733,394.400 266.803 C 394.400 266.040,394.690 265.426,395.200 265.107 C 395.640 264.832,396.000 264.291,396.000 263.904 C 396.000 263.467,396.303 263.200,396.800 263.200 C 397.333 263.200,397.600 262.933,397.600 262.400 C 397.600 261.960,397.851 261.600,398.157 261.600 C 398.877 261.600,399.200 260.722,399.200 258.767 C 399.200 257.905,399.380 257.200,399.600 257.200 C 399.856 257.200,400.000 253.533,400.000 247.000 C 400.000 240.467,399.856 236.800,399.600 236.800 C 399.370 236.800,399.200 235.554,399.200 233.862 C 399.200 231.432,399.062 230.799,398.400 230.200 C 397.838 229.691,397.600 228.968,397.600 227.765 C 397.600 226.405,397.436 226.002,396.800 225.800 C 396.074 225.570,396.000 225.195,396.000 221.773 C 396.000 218.267,395.943 218.000,395.200 218.000 C 394.456 218.000,394.400 217.733,394.400 214.200 C 394.400 210.667,394.344 210.400,393.600 210.400 C 392.860 210.400,392.800 210.133,392.800 206.849 C 392.800 204.328,392.641 203.166,392.251 202.843 C 391.950 202.592,391.608 201.546,391.492 200.518 C 391.374 199.472,390.999 198.442,390.641 198.180 C 390.150 197.821,390.000 196.997,390.000 194.656 C 390.000 191.867,389.930 191.600,389.200 191.600 C 388.456 191.600,388.400 191.333,388.400 187.763 C 388.400 184.262,388.330 183.907,387.600 183.716 C 386.886 183.529,386.800 183.170,386.800 180.386 C 386.800 176.919,386.581 176.000,385.757 176.000 C 385.343 176.000,385.200 175.385,385.200 173.600 C 385.200 171.467,385.111 171.200,384.400 171.200 C 383.674 171.200,383.599 170.932,383.595 168.300 C 383.588 164.867,383.307 163.600,382.553 163.600 C 382.128 163.600,382.000 162.858,382.000 160.400 C 382.000 157.467,381.933 157.200,381.200 157.200 C 380.456 157.200,380.400 156.933,380.400 153.363 C 380.400 149.862,380.330 149.507,379.600 149.316 C 378.914 149.137,378.800 148.770,378.800 146.753 C 378.800 144.667,378.709 144.400,378.000 144.400 C 377.256 144.400,377.200 144.133,377.200 140.600 C 377.200 137.067,377.144 136.800,376.400 136.800 C 375.656 136.800,375.600 136.533,375.600 133.000 C 375.600 130.043,375.478 129.200,375.050 129.200 C 374.641 129.200,374.455 128.333,374.322 125.811 C 374.203 123.539,373.941 122.188,373.526 121.711 C 373.186 121.320,372.797 120.020,372.663 118.821 C 372.514 117.491,372.182 116.510,371.810 116.301 C 371.356 116.047,371.200 115.258,371.200 113.207 C 371.200 110.805,371.098 110.422,370.400 110.200 C 369.678 109.971,369.600 109.595,369.600 106.336 C 369.600 103.062,369.525 102.706,368.800 102.516 C 368.075 102.326,368.000 101.970,368.000 98.716 C 368.000 95.530,367.915 95.103,367.243 94.927 C 366.612 94.762,366.460 94.263,366.328 91.928 C 366.208 89.813,366.002 89.033,365.485 88.744 C 365.108 88.533,364.800 88.009,364.800 87.580 C 364.800 87.067,364.527 86.800,364.000 86.800 C 363.333 86.800,363.200 86.533,363.200 85.200 C 363.200 83.867,363.067 83.600,362.400 83.600 C 361.748 83.600,361.600 83.333,361.600 82.163 C 361.600 81.085,361.409 80.675,360.837 80.526 C 360.417 80.416,359.984 79.983,359.874 79.563 C 359.765 79.143,359.409 78.800,359.084 78.800 C 358.759 78.800,358.399 78.440,358.284 78.000 C 358.169 77.560,357.788 77.200,357.437 77.200 C 357.087 77.200,356.800 76.950,356.800 76.645 C 356.800 76.326,356.202 75.977,355.400 75.826 C 354.562 75.669,354.000 75.330,354.000 74.982 C 354.000 74.635,353.614 74.400,353.047 74.400 C 352.430 74.400,352.019 74.118,351.884 73.600 C 351.709 72.932,351.338 72.800,349.637 72.800 C 347.867 72.800,347.600 72.695,347.600 72.000 C 347.600 71.333,347.333 71.200,346.000 71.200 C 344.667 71.200,344.400 71.067,344.400 70.400 C 344.400 69.755,344.133 69.600,343.027 69.600 C 342.005 69.600,341.589 69.395,341.400 68.800 C 341.205 68.184,340.795 68.000,339.620 68.000 C 338.430 68.000,338.047 67.824,337.884 67.200 C 337.734 66.626,337.338 66.400,336.484 66.400 C 335.630 66.400,335.234 66.174,335.084 65.600 C 334.925 64.994,334.538 64.800,333.484 64.800 C 332.430 64.800,332.043 64.606,331.884 64.000 C 331.706 63.320,331.338 63.200,329.437 63.200 C 327.467 63.200,327.200 63.105,327.200 62.400 C 327.200 61.758,326.933 61.600,325.847 61.600 C 324.830 61.600,324.441 61.401,324.284 60.800 C 324.159 60.321,323.738 60.000,323.237 60.000 C 322.760 60.000,322.400 59.742,322.400 59.400 C 322.400 58.991,321.986 58.798,321.100 58.795 C 319.200 58.787,318.000 58.384,318.000 57.753 C 318.000 57.374,317.496 57.200,316.400 57.200 C 315.067 57.200,314.800 57.067,314.800 56.400 C 314.800 55.733,314.533 55.600,313.200 55.600 C 311.867 55.600,311.600 55.467,311.600 54.800 C 311.600 54.133,311.333 54.000,310.000 54.000 C 308.667 54.000,308.400 53.867,308.400 53.200 C 308.400 52.558,308.133 52.400,307.047 52.400 C 306.030 52.400,305.641 52.201,305.484 51.600 C 305.325 50.994,304.938 50.800,303.884 50.800 C 302.830 50.800,302.443 50.606,302.284 50.000 C 302.106 49.320,301.738 49.200,299.837 49.200 C 297.867 49.200,297.600 49.105,297.600 48.400 C 297.600 47.867,297.333 47.600,296.800 47.600 C 296.360 47.600,296.000 47.349,296.000 47.043 C 296.000 46.398,295.148 46.000,293.767 46.000 C 293.210 46.000,292.800 45.765,292.800 45.447 C 292.800 44.822,291.603 44.414,289.747 44.405 C 288.832 44.401,288.437 44.184,288.284 43.600 C 288.124 42.987,287.738 42.800,286.637 42.800 C 285.626 42.800,285.200 42.622,285.200 42.200 C 285.200 41.827,284.822 41.600,284.200 41.600 C 283.612 41.600,283.200 41.370,283.200 41.043 C 283.200 40.323,282.322 40.000,280.367 40.000 C 279.067 40.000,278.800 39.864,278.800 39.200 C 278.800 38.533,278.533 38.400,277.200 38.400 C 275.867 38.400,275.600 38.267,275.600 37.600 C 275.600 36.955,275.333 36.800,274.227 36.800 C 273.205 36.800,272.789 36.595,272.600 36.000 C 272.416 35.420,271.995 35.200,271.069 35.200 C 270.226 35.200,269.623 34.929,269.293 34.400 C 268.981 33.901,268.360 33.600,267.643 33.600 C 266.830 33.600,266.432 33.366,266.284 32.800 C 266.124 32.187,265.738 32.000,264.637 32.000 C 263.675 32.000,263.200 31.816,263.200 31.443 C 263.200 30.704,262.314 30.400,260.167 30.400 C 258.667 30.400,258.400 30.279,258.400 29.600 C 258.400 29.061,258.133 28.800,257.583 28.800 C 257.134 28.800,256.380 28.440,255.908 28.000 C 255.436 27.560,254.723 27.200,254.325 27.200 C 253.926 27.200,253.600 26.943,253.600 26.629 C 253.600 26.236,252.911 25.972,251.400 25.783 C 249.925 25.598,249.200 25.325,249.200 24.954 C 249.200 24.574,248.696 24.400,247.600 24.400 C 246.267 24.400,246.000 24.267,246.000 23.600 C 246.000 22.933,245.733 22.800,244.400 22.800 C 243.067 22.800,242.800 22.667,242.800 22.000 C 242.800 21.355,242.533 21.200,241.427 21.200 C 240.405 21.200,239.989 20.995,239.800 20.400 C 239.613 19.812,239.195 19.600,238.220 19.600 C 237.230 19.600,236.840 19.397,236.684 18.800 C 236.525 18.194,236.138 18.000,235.084 18.000 C 234.030 18.000,233.643 17.806,233.484 17.200 C 233.306 16.520,232.938 16.400,231.037 16.400 C 229.067 16.400,228.800 16.305,228.800 15.600 C 228.800 15.067,228.533 14.800,228.000 14.800 C 227.560 14.800,227.200 14.549,227.200 14.243 C 227.200 13.621,226.356 13.200,225.111 13.200 C 224.659 13.200,224.077 12.912,223.820 12.559 C 223.560 12.204,222.532 11.826,221.510 11.711 C 220.150 11.558,219.617 11.307,219.472 10.752 C 219.325 10.192,218.908 10.000,217.837 10.000 C 216.826 10.000,216.400 9.822,216.400 9.400 C 216.400 9.070,216.080 8.800,215.689 8.800 C 215.298 8.800,214.670 8.440,214.293 8.000 C 213.796 7.420,213.113 7.200,211.804 7.200 C 210.267 7.200,210.000 7.082,210.000 6.400 C 210.000 5.621,209.733 5.600,200.000 5.600 C 190.267 5.600,190.000 5.621,190.000 6.400 M202.931 57.611 C 208.321 59.995,209.635 67.296,206.961 80.000 C 205.633 86.309,206.708 95.600,208.765 95.600 C 208.924 95.600,209.222 96.545,209.427 97.700 L 209.800 99.800 214.200 100.038 C 217.151 100.198,218.995 100.494,219.800 100.936 C 220.460 101.298,221.900 101.600,223.000 101.606 C 224.115 101.613,225.771 101.968,226.744 102.409 C 227.703 102.844,228.783 103.202,229.144 103.205 C 229.940 103.211,235.711 105.030,236.695 105.584 C 237.083 105.803,238.165 106.173,239.100 106.406 C 240.035 106.640,240.800 106.990,240.800 107.184 C 240.800 107.378,241.385 107.665,242.100 107.822 C 242.815 107.978,244.027 108.443,244.794 108.853 C 245.561 109.264,246.316 109.600,246.473 109.600 C 246.629 109.600,247.832 110.230,249.146 111.000 C 250.460 111.770,251.791 112.400,252.105 112.400 C 252.419 112.400,253.002 112.760,253.400 113.200 C 253.798 113.640,254.385 114.000,254.704 114.000 C 255.023 114.000,255.781 114.405,256.387 114.900 C 256.993 115.395,258.279 116.292,259.245 116.893 C 261.372 118.217,264.777 120.592,265.600 121.325 C 265.930 121.619,267.550 122.920,269.200 124.215 C 270.850 125.510,273.584 127.882,275.275 129.485 C 278.774 132.802,278.470 132.668,279.969 131.559 C 280.672 131.040,281.888 130.663,283.155 130.573 C 286.726 130.318,294.255 124.248,300.590 116.519 C 307.731 107.804,318.800 108.713,318.800 118.015 C 318.800 123.414,316.571 126.001,308.033 130.511 C 306.805 131.160,305.516 131.940,305.169 132.245 C 304.821 132.550,304.354 132.800,304.130 132.800 C 303.907 132.800,303.398 133.160,303.000 133.600 C 302.602 134.040,302.057 134.400,301.789 134.400 C 300.012 134.400,294.180 139.966,293.274 142.527 C 292.764 143.967,292.079 145.368,291.752 145.640 C 290.319 146.829,290.307 147.543,291.679 149.858 C 292.405 151.084,293.386 152.743,293.858 153.544 C 295.159 155.752,298.304 162.086,298.584 163.064 C 298.720 163.539,299.094 164.146,299.415 164.413 C 299.737 164.680,300.001 165.371,300.003 165.949 C 300.004 166.527,300.363 167.540,300.800 168.200 C 301.237 168.860,301.602 169.760,301.611 170.200 C 301.620 170.640,301.975 171.720,302.400 172.600 C 302.825 173.480,303.179 174.493,303.186 174.851 C 303.194 175.209,303.453 176.109,303.762 176.851 C 304.071 177.593,304.451 179.100,304.605 180.200 C 304.760 181.300,305.163 182.638,305.501 183.174 C 305.846 183.720,306.239 185.651,306.398 187.574 C 306.553 189.458,306.990 192.136,307.370 193.525 C 307.970 195.723,308.042 197.706,307.930 208.830 C 307.804 221.196,307.825 221.618,308.578 221.857 C 309.005 221.992,310.315 223.063,311.488 224.235 C 313.040 225.788,314.025 226.435,315.110 226.617 C 315.929 226.754,317.410 227.114,318.400 227.416 C 320.173 227.958,324.752 228.505,333.400 229.209 C 339.040 229.667,340.210 229.889,340.809 230.611 C 341.078 230.935,341.609 231.200,341.990 231.200 C 343.829 231.200,346.800 235.797,346.800 238.642 C 346.800 244.002,340.360 248.196,335.070 246.281 C 334.151 245.949,332.703 245.577,331.850 245.456 C 330.998 245.334,330.008 244.981,329.650 244.671 C 329.293 244.361,328.460 243.986,327.800 243.837 C 327.140 243.688,325.880 243.224,325.000 242.806 C 324.120 242.388,322.050 241.647,320.400 241.160 C 318.750 240.672,317.156 240.085,316.859 239.853 C 315.875 239.090,308.945 239.013,307.817 239.752 C 307.273 240.109,306.130 240.400,305.276 240.400 C 303.395 240.400,302.560 241.207,301.789 243.771 C 301.483 244.787,300.956 246.014,300.616 246.498 C 300.277 246.982,300.000 247.856,300.000 248.440 C 300.000 249.024,299.737 249.720,299.415 249.987 C 299.094 250.254,298.720 250.861,298.584 251.336 C 298.373 252.072,296.591 255.752,293.933 260.945 C 293.566 261.661,292.981 262.484,292.633 262.773 C 292.285 263.062,292.000 263.519,292.000 263.789 C 292.000 264.059,291.419 265.072,290.709 266.040 C 288.620 268.889,287.601 270.417,287.588 270.718 C 287.581 270.873,286.854 271.810,285.971 272.800 C 285.088 273.790,283.618 275.590,282.703 276.800 C 278.457 282.416,267.741 291.907,259.544 297.313 C 256.110 299.577,255.322 300.448,255.899 301.336 C 256.064 301.591,256.211 303.638,256.224 305.884 C 256.242 308.935,256.402 310.150,256.857 310.684 C 257.192 311.078,257.966 312.390,258.578 313.600 C 259.189 314.810,259.939 316.084,260.245 316.431 C 260.550 316.779,260.800 317.246,260.800 317.470 C 260.800 317.693,261.160 318.202,261.600 318.600 C 262.040 318.998,262.400 319.548,262.400 319.821 C 262.400 320.095,263.348 321.552,264.507 323.059 C 265.666 324.567,266.925 326.430,267.304 327.200 C 267.684 327.970,268.166 328.870,268.374 329.200 C 271.462 334.083,269.220 341.279,264.266 342.386 C 260.351 343.261,255.818 341.657,254.551 338.947 C 254.256 338.316,253.843 337.530,253.632 337.200 C 252.471 335.380,250.000 328.348,250.000 326.863 C 250.000 326.348,249.640 325.469,249.200 324.909 C 248.760 324.350,248.400 323.360,248.400 322.709 C 248.400 322.059,248.040 321.069,247.600 320.509 C 247.160 319.950,246.799 319.201,246.798 318.846 C 246.797 318.158,245.304 315.032,244.365 313.749 C 244.054 313.324,242.776 312.306,241.526 311.484 C 240.275 310.663,239.132 309.616,238.986 309.156 C 238.792 308.545,238.492 308.379,237.861 308.537 C 237.387 308.655,236.100 308.951,235.000 309.194 C 233.900 309.438,232.493 309.916,231.874 310.256 C 231.255 310.597,229.815 311.019,228.674 311.194 C 227.533 311.369,226.060 311.698,225.400 311.926 C 221.729 313.192,206.257 315.205,200.200 315.205 C 194.023 315.205,177.778 313.050,174.400 311.783 C 173.630 311.494,172.199 311.147,171.220 311.011 C 170.241 310.876,169.203 310.569,168.914 310.329 C 168.383 309.888,164.852 308.885,162.553 308.522 C 161.492 308.354,161.270 308.468,161.065 309.283 C 160.850 310.142,158.043 312.400,157.191 312.400 C 156.413 312.400,153.238 317.883,153.213 319.271 C 153.206 319.641,152.926 320.217,152.592 320.551 C 152.257 320.886,151.835 321.953,151.654 322.923 C 151.473 323.893,151.026 325.113,150.662 325.633 C 150.298 326.153,149.994 327.123,149.986 327.789 C 149.979 328.455,149.625 329.720,149.200 330.600 C 148.775 331.480,148.421 332.509,148.414 332.888 C 148.401 333.518,147.256 336.155,146.367 337.600 C 146.164 337.930,145.837 338.560,145.639 339.000 C 143.730 343.257,135.645 344.235,132.449 340.595 C 128.772 336.407,130.393 329.464,136.900 321.531 C 137.285 321.062,137.600 320.463,137.600 320.201 C 137.600 319.939,137.960 319.398,138.400 319.000 C 138.840 318.602,139.200 318.093,139.200 317.870 C 139.200 317.646,139.448 317.179,139.750 316.831 C 142.337 313.862,144.405 307.932,143.891 304.952 C 143.611 303.327,143.670 302.626,144.165 301.668 C 144.511 300.999,144.695 300.193,144.575 299.878 C 144.355 299.305,140.770 296.800,140.170 296.800 C 139.995 296.800,139.480 296.462,139.026 296.048 C 138.572 295.634,137.160 294.582,135.888 293.710 C 132.544 291.417,123.845 283.666,120.792 280.259 C 116.674 275.664,113.073 271.294,112.669 270.400 C 112.420 269.850,112.090 269.307,111.935 269.193 C 111.495 268.869,108.000 263.574,108.000 263.231 C 108.000 263.062,107.640 262.598,107.200 262.200 C 106.760 261.802,106.400 261.201,106.400 260.864 C 106.400 260.527,106.076 259.880,105.679 259.426 C 105.283 258.972,104.526 257.610,103.996 256.400 C 103.467 255.190,102.711 253.722,102.317 253.138 C 101.922 252.554,101.600 251.727,101.600 251.300 C 101.600 250.873,101.240 250.198,100.800 249.800 C 100.346 249.389,100.000 248.568,100.000 247.901 C 100.000 247.255,99.640 246.269,99.200 245.709 C 98.760 245.150,98.400 244.168,98.400 243.528 C 98.400 241.684,96.756 240.297,94.967 240.633 C 93.847 240.843,93.282 240.715,92.383 240.051 C 90.861 238.925,86.677 238.877,83.808 239.952 C 80.456 241.208,79.076 241.658,77.327 242.065 C 76.407 242.278,75.440 242.711,75.178 243.027 C 74.916 243.342,74.322 243.600,73.857 243.600 C 73.392 243.600,72.109 244.027,71.006 244.548 C 61.944 248.830,53.200 246.044,53.200 238.874 C 53.200 236.503,56.020 231.631,57.406 231.607 C 57.629 231.603,58.529 231.209,59.406 230.730 C 60.669 230.042,62.248 229.757,67.000 229.359 C 75.925 228.612,81.314 227.967,82.088 227.553 C 82.468 227.350,83.677 227.013,84.775 226.805 C 86.358 226.505,87.179 226.029,88.730 224.513 C 89.807 223.461,91.152 222.240,91.721 221.800 C 92.723 221.024,92.742 220.927,92.347 218.600 C 91.701 214.798,92.117 193.797,92.877 191.800 C 93.212 190.920,93.617 188.686,93.776 186.835 C 93.936 184.985,94.312 183.095,94.613 182.635 C 94.914 182.176,95.276 180.990,95.419 180.000 C 95.701 178.046,96.962 173.756,97.847 171.740 C 98.151 171.046,98.400 170.234,98.400 169.934 C 98.400 169.634,98.760 168.716,99.200 167.896 C 99.640 167.075,100.000 165.974,100.000 165.450 C 100.000 164.927,100.261 164.282,100.580 164.017 C 100.898 163.752,101.374 162.885,101.637 162.088 C 101.900 161.292,102.626 159.773,103.252 158.712 C 103.877 157.652,104.505 156.323,104.646 155.760 C 104.787 155.196,105.139 154.645,105.427 154.534 C 105.715 154.424,106.062 153.827,106.198 153.208 C 106.334 152.589,106.795 151.766,107.223 151.379 C 107.650 150.993,108.000 150.507,108.000 150.301 C 108.000 150.095,108.356 149.474,108.791 148.920 C 109.642 147.839,109.472 147.083,108.000 145.400 C 107.615 144.960,106.998 143.669,106.628 142.531 C 105.976 140.522,104.119 138.402,101.608 136.800 C 101.091 136.470,100.368 135.930,100.000 135.600 C 99.214 134.893,97.491 133.847,95.768 133.030 C 95.091 132.709,94.304 132.166,94.019 131.823 C 93.735 131.480,93.267 131.200,92.980 131.200 C 92.692 131.200,92.213 130.975,91.915 130.700 C 91.616 130.425,90.312 129.660,89.015 129.000 C 76.978 122.872,78.907 108.855,91.495 110.982 C 92.407 111.136,93.366 111.518,93.626 111.831 C 93.886 112.144,94.295 112.400,94.535 112.400 C 95.145 112.400,95.318 112.567,105.023 122.490 C 107.761 125.290,110.541 127.859,111.201 128.200 C 111.860 128.541,112.400 128.961,112.400 129.133 C 112.400 129.701,115.362 130.717,117.575 130.909 C 119.148 131.045,119.937 131.329,120.429 131.936 C 121.103 132.769,121.134 132.752,124.254 129.733 C 125.984 128.060,129.650 124.918,132.400 122.751 C 138.797 117.711,139.476 117.200,139.767 117.200 C 139.900 117.200,140.883 116.585,141.952 115.834 C 143.659 114.634,145.444 113.625,152.194 110.045 C 153.071 109.580,153.994 109.200,154.245 109.200 C 154.496 109.200,154.907 108.953,155.157 108.651 C 155.408 108.350,156.256 107.998,157.042 107.871 C 157.828 107.743,158.737 107.418,159.061 107.149 C 159.955 106.407,169.229 103.214,170.516 103.205 C 170.910 103.202,171.938 102.840,172.800 102.400 C 173.750 101.916,175.158 101.600,176.369 101.600 C 177.470 101.600,179.284 101.240,180.400 100.800 C 181.922 100.200,183.373 100.000,186.201 100.000 C 190.357 100.000,190.800 99.739,190.800 97.288 C 190.800 96.632,191.149 95.808,191.600 95.400 C 192.040 95.002,192.400 94.493,192.400 94.270 C 192.400 94.046,192.711 93.519,193.092 93.099 C 193.980 92.117,193.952 84.535,193.040 79.304 C 190.609 65.361,191.546 60.237,196.979 57.765 C 199.505 56.616,200.618 56.588,202.931 57.611 M181.600 122.792 C 180.390 123.207,178.986 123.559,178.480 123.574 C 177.974 123.588,177.074 123.845,176.480 124.145 C 175.886 124.445,174.621 124.789,173.669 124.911 C 172.717 125.033,171.637 125.398,171.269 125.723 C 170.901 126.047,169.845 126.437,168.923 126.588 C 168.001 126.739,167.034 127.118,166.774 127.431 C 166.514 127.744,166.079 128.000,165.805 128.000 C 165.217 128.000,157.890 131.584,157.600 132.014 C 157.490 132.177,156.770 132.607,156.000 132.969 C 153.765 134.022,152.370 134.835,151.587 135.542 C 150.594 136.437,150.093 136.807,148.000 138.186 C 147.010 138.839,145.916 139.649,145.568 139.986 C 145.221 140.324,143.935 141.469,142.711 142.531 C 139.857 145.007,139.979 145.659,143.800 148.374 C 145.340 149.468,146.791 150.527,147.025 150.727 C 147.259 150.928,147.878 151.320,148.400 151.600 C 148.922 151.880,149.541 152.266,149.775 152.459 C 150.567 153.113,153.105 154.997,154.005 155.600 C 154.497 155.930,155.899 156.965,157.120 157.900 C 158.341 158.835,159.538 159.600,159.781 159.600 C 160.024 159.600,160.513 159.915,160.868 160.300 C 161.223 160.685,162.440 161.630,163.571 162.400 C 164.702 163.170,166.633 164.565,167.862 165.500 C 169.091 166.435,170.275 167.200,170.493 167.200 C 170.711 167.200,171.724 167.887,172.744 168.727 C 177.613 172.734,181.322 173.205,184.392 170.207 C 186.861 167.797,187.157 166.372,187.590 154.783 C 187.800 149.182,188.144 143.520,188.354 142.200 C 188.564 140.880,188.796 135.840,188.868 131.000 L 189.000 122.200 186.400 122.118 C 184.703 122.065,183.036 122.299,181.600 122.792 M211.169 122.500 C 210.950 126.026,211.371 139.305,211.818 142.988 C 212.138 145.621,212.412 149.851,212.426 152.388 C 212.494 164.631,213.206 168.209,216.026 170.475 C 219.042 172.897,222.856 172.275,227.400 168.620 C 228.280 167.912,229.855 166.836,230.900 166.228 C 231.945 165.621,232.800 164.957,232.800 164.752 C 232.800 164.548,233.205 164.212,233.700 164.006 C 234.195 163.800,235.590 162.908,236.800 162.023 C 238.010 161.138,239.990 159.740,241.200 158.916 C 242.410 158.092,243.614 157.234,243.876 157.009 C 244.138 156.784,245.005 156.150,245.803 155.600 C 246.600 155.050,248.136 153.925,249.215 153.100 C 250.294 152.275,251.334 151.600,251.526 151.600 C 251.719 151.600,252.202 151.240,252.600 150.800 C 252.998 150.360,253.491 150.000,253.695 150.000 C 253.899 150.000,254.816 149.394,255.733 148.653 C 256.650 147.912,257.805 147.096,258.300 146.839 C 260.875 145.503,258.339 142.813,247.426 135.306 C 245.432 133.934,243.603 132.809,243.362 132.806 C 243.121 132.803,242.598 132.440,242.200 132.000 C 241.802 131.560,241.271 131.200,241.019 131.200 C 240.768 131.200,239.401 130.574,237.981 129.809 C 236.562 129.044,235.109 128.414,234.754 128.409 C 234.399 128.404,233.658 128.046,233.108 127.613 C 232.558 127.181,231.367 126.708,230.461 126.563 C 229.556 126.419,228.617 126.061,228.375 125.770 C 228.133 125.478,227.094 125.117,226.067 124.968 C 225.040 124.818,223.714 124.449,223.120 124.148 C 222.526 123.847,221.694 123.600,221.272 123.600 C 220.850 123.600,219.377 123.240,218.000 122.800 C 215.144 121.888,211.218 121.715,211.169 122.500 M125.190 163.900 C 124.976 164.505,124.627 165.270,124.414 165.600 C 123.395 167.182,120.400 173.430,120.397 173.979 C 120.396 174.320,120.037 175.140,119.600 175.800 C 119.163 176.460,118.804 177.414,118.803 177.920 C 118.801 178.426,118.500 179.416,118.133 180.120 C 117.494 181.348,116.795 183.920,115.939 188.200 C 115.718 189.300,115.256 191.190,114.911 192.400 C 114.446 194.027,114.236 197.150,114.103 204.400 C 113.883 216.350,113.814 216.142,117.536 214.854 C 118.893 214.384,120.253 214.000,120.558 214.000 C 120.863 214.000,121.897 213.644,122.856 213.209 C 123.815 212.774,125.235 212.414,126.011 212.409 C 126.787 212.404,127.810 212.128,128.284 211.796 C 128.759 211.464,130.014 211.079,131.073 210.942 C 132.133 210.804,133.450 210.467,134.000 210.194 C 135.226 209.585,140.917 208.001,141.892 207.998 C 142.281 207.996,143.140 207.700,143.800 207.340 C 144.460 206.980,145.961 206.545,147.136 206.372 C 148.310 206.200,149.570 205.800,149.936 205.483 C 150.301 205.166,151.500 204.805,152.600 204.680 C 158.517 204.009,162.099 200.199,161.372 195.350 C 161.020 193.004,159.414 191.098,154.000 186.597 C 152.395 185.263,149.819 182.940,142.426 176.159 C 141.202 175.036,138.229 172.426,135.820 170.359 C 133.411 168.291,130.548 165.745,129.458 164.700 C 127.127 162.466,125.787 162.215,125.190 163.900 M270.766 164.333 C 269.199 165.935,265.281 169.392,262.904 171.269 C 262.077 171.922,260.140 173.667,258.600 175.147 C 256.076 177.572,254.202 179.252,245.648 186.760 C 239.887 191.817,239.192 192.637,238.708 194.945 C 237.645 200.014,240.546 203.071,247.849 204.578 C 249.196 204.856,250.721 205.380,251.238 205.742 C 251.755 206.104,252.859 206.400,253.690 206.400 C 254.522 206.400,255.875 206.760,256.696 207.200 C 257.516 207.640,258.551 207.999,258.994 207.998 C 259.762 207.996,261.627 208.522,265.600 209.861 C 266.590 210.194,268.358 210.637,269.530 210.844 C 270.701 211.051,272.051 211.464,272.530 211.762 C 273.008 212.060,274.288 212.417,275.374 212.555 C 276.460 212.692,277.724 213.051,278.183 213.352 C 278.642 213.653,279.805 214.032,280.768 214.195 C 281.731 214.357,283.095 214.731,283.799 215.025 C 284.764 215.429,285.193 215.447,285.540 215.100 C 286.101 214.539,286.144 197.955,285.592 195.200 C 285.393 194.210,285.033 192.410,284.792 191.200 C 284.550 189.990,284.110 188.190,283.813 187.200 C 283.516 186.210,283.152 184.646,283.005 183.723 C 282.858 182.801,282.392 181.368,281.969 180.539 C 281.546 179.709,281.200 178.551,281.200 177.964 C 281.200 177.378,280.942 176.683,280.626 176.421 C 280.310 176.159,279.927 175.379,279.775 174.688 C 279.526 173.553,278.501 171.169,277.587 169.600 C 277.395 169.270,276.584 167.709,275.786 166.130 C 273.824 162.250,273.067 161.980,270.766 164.333 M190.995 196.223 C 189.898 197.666,188.719 199.151,188.375 199.523 C 185.688 202.434,184.755 203.968,185.184 204.770 C 185.425 205.221,185.871 206.897,186.174 208.495 C 186.476 210.093,186.911 212.120,187.140 213.000 C 187.368 213.880,187.655 215.081,187.777 215.668 C 187.938 216.440,188.320 216.807,189.158 216.991 C 189.796 217.131,190.634 217.595,191.021 218.023 C 191.407 218.450,192.073 218.800,192.500 218.800 C 192.927 218.800,193.754 219.136,194.338 219.548 C 194.922 219.959,195.850 220.433,196.400 220.601 C 196.950 220.770,197.755 221.154,198.189 221.454 C 198.623 221.754,199.438 222.000,200.000 222.000 C 200.562 222.000,201.377 221.754,201.811 221.454 C 202.245 221.154,203.050 220.770,203.600 220.601 C 204.150 220.433,205.078 219.959,205.662 219.548 C 206.246 219.136,207.073 218.800,207.500 218.800 C 207.927 218.800,208.593 218.450,208.979 218.023 C 209.366 217.595,210.204 217.131,210.842 216.991 C 211.586 216.827,212.071 216.426,212.197 215.868 C 212.305 215.391,212.591 214.190,212.832 213.200 C 213.073 212.210,213.445 210.500,213.658 209.400 C 213.871 208.300,214.292 206.608,214.595 205.639 L 215.145 203.878 211.107 198.739 L 207.069 193.600 200.029 193.600 L 192.990 193.600 190.995 196.223 M234.530 229.253 C 230.283 230.225,228.231 235.612,230.376 240.156 C 232.139 243.890,234.400 249.444,234.400 250.039 C 234.400 250.390,234.760 251.093,235.200 251.600 C 235.640 252.107,236.001 252.900,236.003 253.361 C 236.004 253.823,236.363 254.740,236.800 255.400 C 237.237 256.060,237.596 256.932,237.597 257.338 C 237.599 257.744,237.858 258.554,238.173 259.138 C 239.253 261.139,240.800 264.750,240.803 265.275 C 240.804 265.564,241.163 266.340,241.600 267.000 C 242.037 267.660,242.396 268.583,242.397 269.051 C 242.399 269.519,242.658 270.117,242.974 270.379 C 243.290 270.641,243.668 271.428,243.814 272.128 C 243.959 272.827,244.304 273.760,244.579 274.200 C 244.854 274.640,245.300 275.676,245.571 276.503 C 246.488 279.301,247.693 279.304,251.116 276.521 C 252.279 275.574,253.409 274.800,253.627 274.800 C 254.265 274.800,266.838 261.934,268.719 259.356 C 270.719 256.615,274.371 251.040,275.112 249.597 C 275.393 249.048,276.244 247.430,277.003 246.000 C 277.762 244.570,278.387 243.197,278.391 242.949 C 278.396 242.701,278.647 242.293,278.949 242.043 C 279.250 241.792,279.603 240.938,279.732 240.144 C 279.860 239.350,280.262 238.374,280.624 237.974 C 281.733 236.749,281.111 236.227,277.967 235.745 C 276.335 235.494,273.965 235.089,272.700 234.845 C 271.435 234.600,269.365 234.201,268.100 233.957 C 266.835 233.713,263.910 233.294,261.600 233.025 C 259.290 232.756,256.983 232.312,256.473 232.040 C 255.963 231.767,253.803 231.407,251.673 231.241 C 249.543 231.075,247.373 230.710,246.852 230.430 C 246.330 230.150,244.150 229.768,242.008 229.582 C 239.865 229.396,237.682 229.159,237.156 229.057 C 236.630 228.954,235.449 229.042,234.530 229.253 M158.600 229.614 C 156.840 229.779,154.731 230.203,153.913 230.557 C 153.062 230.925,151.335 231.200,149.876 231.200 C 148.474 231.200,146.444 231.491,145.364 231.846 C 144.284 232.202,141.600 232.722,139.400 233.001 C 135.659 233.477,134.434 233.685,128.500 234.853 C 127.235 235.102,124.684 235.509,122.832 235.758 C 119.352 236.226,118.645 236.702,119.768 237.825 C 120.116 238.173,120.400 238.828,120.400 239.280 C 120.400 240.084,123.116 245.812,125.009 249.000 C 125.531 249.880,126.140 250.995,126.361 251.478 C 126.583 251.961,127.402 253.264,128.182 254.374 C 128.962 255.484,129.600 256.530,129.600 256.700 C 129.600 256.870,130.290 257.726,131.134 258.604 C 131.978 259.482,132.833 260.500,133.034 260.867 C 134.897 264.262,149.091 277.277,151.904 278.170 C 153.022 278.524,154.274 277.844,154.610 276.700 C 154.958 275.514,156.242 272.570,157.219 270.721 C 157.649 269.907,158.000 268.962,158.000 268.619 C 158.000 268.277,158.360 267.325,158.800 266.504 C 159.240 265.684,159.600 264.626,159.600 264.155 C 159.600 263.684,159.870 263.074,160.200 262.800 C 160.530 262.526,160.800 262.092,160.800 261.836 C 160.800 261.579,161.160 260.663,161.600 259.800 C 162.040 258.937,162.401 257.954,162.403 257.615 C 162.404 257.277,162.763 256.460,163.200 255.800 C 163.637 255.140,163.996 254.219,163.997 253.754 C 163.999 253.289,164.360 252.450,164.800 251.891 C 165.240 251.331,165.600 250.672,165.600 250.425 C 165.600 249.736,168.044 243.877,169.648 240.721 C 171.082 237.900,170.722 233.723,168.869 231.676 C 166.626 229.198,165.489 228.970,158.600 229.614 M197.200 247.082 C 195.594 247.670,193.538 250.340,191.258 254.800 C 190.527 256.230,189.508 258.120,188.993 259.000 C 188.478 259.880,187.497 261.709,186.812 263.064 C 186.128 264.420,185.305 265.747,184.984 266.013 C 184.663 266.280,184.400 266.825,184.400 267.225 C 184.400 267.625,184.205 268.073,183.967 268.220 C 183.729 268.368,183.186 269.233,182.761 270.144 C 181.699 272.419,179.467 276.293,178.882 276.878 C 178.617 277.143,178.400 277.684,178.400 278.080 C 178.400 278.476,178.058 279.142,177.639 279.561 C 177.221 279.979,176.750 280.744,176.592 281.261 C 176.434 281.777,176.078 282.470,175.799 282.800 C 175.159 283.560,173.200 287.727,173.200 288.331 C 173.200 288.581,173.695 288.888,174.300 289.013 C 174.905 289.139,175.973 289.524,176.674 289.870 C 177.375 290.215,179.085 290.642,180.474 290.819 C 181.863 290.995,183.900 291.398,185.000 291.713 C 190.821 293.383,213.372 293.173,216.766 291.418 C 217.423 291.078,218.827 290.800,219.886 290.800 C 221.001 290.800,222.398 290.486,223.206 290.053 C 223.973 289.643,225.185 289.178,225.900 289.022 C 226.615 288.865,227.200 288.571,227.200 288.369 C 227.200 287.809,224.408 282.452,223.978 282.186 C 223.770 282.058,223.600 281.625,223.600 281.225 C 223.600 280.825,223.337 280.280,223.016 280.013 C 222.695 279.747,221.867 278.420,221.176 277.064 C 220.485 275.709,219.487 273.880,218.958 273.000 C 218.428 272.120,217.699 270.725,217.337 269.900 C 216.975 269.075,216.545 268.400,216.383 268.400 C 216.220 268.400,215.969 267.932,215.826 267.360 C 215.682 266.788,215.250 265.843,214.866 265.260 C 213.750 263.565,213.225 262.681,212.576 261.400 C 212.241 260.740,211.547 259.480,211.032 258.600 C 210.518 257.720,209.400 255.658,208.548 254.017 C 207.697 252.376,206.090 250.081,204.977 248.917 L 202.955 246.800 200.377 246.832 C 198.960 246.849,197.530 246.962,197.200 247.082 " stroke="none" fill="#336be4" fill-rule="evenodd"></path></g></svg>